<svg width="45" height="63" viewBox="0 0 45 63" fill="none" xmlns="http://www.w3.org/2000/svg">
<path d="M21.3281 3.73747C22.0781 3.41893 22.9219 3.41893 23.6719 3.73747L40.2375 10.7641C41.2968 11.2138 42.0093 12.2163 42 13.3499C41.9531 22.1566 38.3062 37.6902 23.6719 44.6887C22.9312 45.0447 22.0594 45.0447 21.3188 44.6887C6.6844 37.6808 3.04691 22.1473 3.00004 13.3405C2.99066 12.2069 3.70316 11.2044 4.76253 10.7547L21.3281 3.7281V3.73747ZM24.8437 0.973661C23.3437 0.336579 21.6562 0.336579 20.1563 0.973661L3.59066 8.0003C1.52816 8.8716 -0.00933234 10.9046 4.2642e-05 13.3593C0.0469176 22.6532 3.87191 39.6576 20.025 47.3869C21.5906 48.1364 23.4094 48.1364 24.975 47.3869C41.1281 39.6576 44.9531 22.6532 45 13.3593C45.0093 10.9046 43.4718 8.8716 41.4093 8.0003L24.8437 0.973661ZM13.7156 20.311C13.7156 18.4747 15.2063 16.985 17.0438 16.985C17.9344 16.985 18.7969 17.341 19.425 17.9875L21.4313 20.0393C21.7125 20.3297 22.0969 20.489 22.5 20.489C22.9031 20.489 23.2875 20.3297 23.5687 20.0393L25.575 17.9875C26.2031 17.3504 27.0562 16.985 27.9562 16.985C29.7937 16.985 31.2844 18.4747 31.2844 20.311V20.4515C31.2844 21.3603 30.9281 22.2316 30.2906 22.878L22.5 30.8322L14.7094 22.878C14.0719 22.2316 13.7156 21.3603 13.7156 20.4515V20.311ZM17.0438 13.987C13.5469 13.987 10.7156 16.8164 10.7156 20.311V20.4515C10.7156 22.1473 11.3813 23.7681 12.5625 24.9766L21.4313 34.0176C21.7125 34.308 22.0969 34.4673 22.5 34.4673C22.9031 34.4673 23.2875 34.308 23.5687 34.0176L32.4375 24.9766C33.6187 23.7681 34.2844 22.1473 34.2844 20.4515V20.311C34.2844 16.8164 31.4531 13.987 27.9562 13.987C26.2594 13.987 24.6281 14.6709 23.4375 15.8889L22.5 16.8445L21.5625 15.8889C20.3719 14.6709 18.7406 13.987 17.0438 13.987Z" fill="#F078F0"/>
<path d="M8.57846 59.2245C8.11646 59.2245 7.69346 59.1105 7.30946 58.8825C6.93146 58.6545 6.62546 58.3425 6.39146 57.9465L6.91346 57.5595C7.35746 58.2375 7.90946 58.5765 8.56946 58.5765C8.92346 58.5765 9.21146 58.4865 9.43346 58.3065C9.65546 58.1265 9.76646 57.8865 9.76646 57.5865C9.76646 57.4125 9.72746 57.2655 9.64946 57.1455C9.57146 57.0255 9.46346 56.9235 9.32546 56.8395C9.19346 56.7555 9.01046 56.6565 8.77646 56.5425L8.11046 56.2275C7.70246 56.0355 7.37546 55.8225 7.12946 55.5885C6.88946 55.3485 6.76946 55.0305 6.76946 54.6345C6.76946 54.3285 6.85046 54.0585 7.01246 53.8245C7.17446 53.5905 7.39046 53.4105 7.66046 53.2845C7.93646 53.1525 8.23646 53.0865 8.56046 53.0865C8.95646 53.0865 9.31646 53.1795 9.64046 53.3655C9.97046 53.5515 10.2315 53.7945 10.4235 54.0945L9.91046 54.4815C9.74846 54.2415 9.54746 54.0585 9.30746 53.9325C9.07346 53.8005 8.82146 53.7345 8.55146 53.7345C8.25746 53.7345 8.00846 53.8095 7.80446 53.9595C7.60046 54.1095 7.49846 54.3225 7.49846 54.5985C7.49846 54.7665 7.53746 54.9105 7.61546 55.0305C7.69346 55.1445 7.79246 55.2405 7.91246 55.3185C8.03846 55.3905 8.21846 55.4835 8.45246 55.5975L9.10946 55.9125C9.57746 56.1405 9.92546 56.3775 10.1535 56.6235C10.3815 56.8695 10.4955 57.1845 10.4955 57.5685C10.4955 57.8925 10.4115 58.1805 10.2435 58.4325C10.0815 58.6845 9.85346 58.8795 9.55946 59.0175C9.27146 59.1555 8.94446 59.2245 8.57846 59.2245ZM13.381 54.6435C13.897 54.6435 14.311 54.7965 14.623 55.1025C14.935 55.4085 15.091 55.8495 15.091 56.4255V59.1255H14.443V58.5585C14.281 58.7745 14.074 58.9395 13.822 59.0535C13.57 59.1675 13.285 59.2245 12.967 59.2245C12.517 59.2245 12.148 59.1135 11.86 58.8915C11.578 58.6695 11.437 58.3695 11.437 57.9915C11.437 57.6195 11.581 57.3225 11.869 57.1005C12.157 56.8785 12.538 56.7675 13.012 56.7675H14.398V56.3895C14.398 56.0295 14.302 55.7565 14.11 55.5705C13.924 55.3785 13.666 55.2825 13.336 55.2825C13.072 55.2825 12.838 55.3425 12.634 55.4625C12.43 55.5765 12.238 55.7505 12.058 55.9845L11.599 55.6065C11.797 55.2825 12.052 55.0425 12.364 54.8865C12.676 54.7245 13.015 54.6435 13.381 54.6435ZM13.057 58.6485C13.297 58.6485 13.519 58.5975 13.723 58.4955C13.927 58.3875 14.089 58.2405 14.209 58.0545C14.335 57.8685 14.398 57.6645 14.398 57.4425V57.3345H13.093C12.787 57.3345 12.553 57.3885 12.391 57.4965C12.229 57.5985 12.148 57.7515 12.148 57.9555C12.148 58.1775 12.235 58.3485 12.409 58.4685C12.583 58.5885 12.799 58.6485 13.057 58.6485ZM18.2799 52.9065C17.9859 52.9065 17.7579 52.9695 17.5959 53.0955C17.4399 53.2155 17.3619 53.4315 17.3619 53.7435V54.7425H18.4599V55.3635H17.3619V59.1255H16.6689V55.3635H16.0389V54.7425H16.6689V53.6985C16.6689 53.2185 16.7979 52.8615 17.0559 52.6275C17.3199 52.3935 17.6739 52.2765 18.1179 52.2765C18.3099 52.2765 18.4929 52.3005 18.6669 52.3485V52.9335C18.5229 52.9155 18.3939 52.9065 18.2799 52.9065ZM23.2095 56.6235C23.2095 56.7915 23.1915 56.9655 23.1555 57.1455H19.6905C19.7325 57.5775 19.9035 57.9255 20.2035 58.1895C20.5035 58.4535 20.8695 58.5855 21.3015 58.5855C21.7995 58.5855 22.2465 58.3875 22.6425 57.9915L23.0475 58.4595C22.8195 58.6995 22.5555 58.8885 22.2555 59.0265C21.9615 59.1585 21.6405 59.2245 21.2925 59.2245C20.8605 59.2245 20.4675 59.1255 20.1135 58.9275C19.7595 58.7235 19.4805 58.4475 19.2765 58.0995C19.0725 57.7515 18.9705 57.3645 18.9705 56.9385C18.9705 56.5185 19.0695 56.1345 19.2675 55.7865C19.4655 55.4325 19.7355 55.1535 20.0775 54.9495C20.4195 54.7455 20.7975 54.6435 21.2115 54.6435C21.5835 54.6435 21.9225 54.7275 22.2285 54.8955C22.5345 55.0635 22.7745 55.2975 22.9485 55.5975C23.1225 55.8975 23.2095 56.2395 23.2095 56.6235ZM21.1935 55.2735C20.8275 55.2735 20.5095 55.3905 20.2395 55.6245C19.9695 55.8525 19.7955 56.1555 19.7175 56.5335H22.4985C22.4925 56.1435 22.3635 55.8375 22.1115 55.6155C21.8655 55.3875 21.5595 55.2735 21.1935 55.2735ZM26.2181 59.2245C25.7561 59.2245 25.3331 59.1105 24.9491 58.8825C24.5711 58.6545 24.2651 58.3425 24.0311 57.9465L24.5531 57.5595C24.9971 58.2375 25.5491 58.5765 26.2091 58.5765C26.5631 58.5765 26.8511 58.4865 27.0731 58.3065C27.2951 58.1265 27.4061 57.8865 27.4061 57.5865C27.4061 57.4125 27.3671 57.2655 27.2891 57.1455C27.2111 57.0255 27.1031 56.9235 26.9651 56.8395C26.8331 56.7555 26.6501 56.6565 26.4161 56.5425L25.7501 56.2275C25.3421 56.0355 25.0151 55.8225 24.7691 55.5885C24.5291 55.3485 24.4091 55.0305 24.4091 54.6345C24.4091 54.3285 24.4901 54.0585 24.6521 53.8245C24.8141 53.5905 25.0301 53.4105 25.3001 53.2845C25.5761 53.1525 25.8761 53.0865 26.2001 53.0865C26.5961 53.0865 26.9561 53.1795 27.2801 53.3655C27.6101 53.5515 27.8711 53.7945 28.0631 54.0945L27.5501 54.4815C27.3881 54.2415 27.1871 54.0585 26.9471 53.9325C26.7131 53.8005 26.4611 53.7345 26.1911 53.7345C25.8971 53.7345 25.6481 53.8095 25.4441 53.9595C25.2401 54.1095 25.1381 54.3225 25.1381 54.5985C25.1381 54.7665 25.1771 54.9105 25.2551 55.0305C25.3331 55.1445 25.4321 55.2405 25.5521 55.3185C25.6781 55.3905 25.8581 55.4835 26.0921 55.5975L26.7491 55.9125C27.2171 56.1405 27.5651 56.3775 27.7931 56.6235C28.0211 56.8695 28.1351 57.1845 28.1351 57.5685C28.1351 57.8925 28.0511 58.1805 27.8831 58.4325C27.7211 58.6845 27.4931 58.8795 27.1991 59.0175C26.9111 59.1555 26.5841 59.2245 26.2181 59.2245ZM33.3697 56.6235C33.3697 56.7915 33.3517 56.9655 33.3157 57.1455H29.8507C29.8927 57.5775 30.0637 57.9255 30.3637 58.1895C30.6637 58.4535 31.0297 58.5855 31.4617 58.5855C31.9597 58.5855 32.4067 58.3875 32.8027 57.9915L33.2077 58.4595C32.9797 58.6995 32.7157 58.8885 32.4157 59.0265C32.1217 59.1585 31.8007 59.2245 31.4527 59.2245C31.0207 59.2245 30.6277 59.1255 30.2737 58.9275C29.9197 58.7235 29.6407 58.4475 29.4367 58.0995C29.2327 57.7515 29.1307 57.3645 29.1307 56.9385C29.1307 56.5185 29.2297 56.1345 29.4277 55.7865C29.6257 55.4325 29.8957 55.1535 30.2377 54.9495C30.5797 54.7455 30.9577 54.6435 31.3717 54.6435C31.7437 54.6435 32.0827 54.7275 32.3887 54.8955C32.6947 55.0635 32.9347 55.2975 33.1087 55.5975C33.2827 55.8975 33.3697 56.2395 33.3697 56.6235ZM31.3537 55.2735C30.9877 55.2735 30.6697 55.3905 30.3997 55.6245C30.1297 55.8525 29.9557 56.1555 29.8777 56.5335H32.6587C32.6527 56.1435 32.5237 55.8375 32.2717 55.6155C32.0257 55.3875 31.7197 55.2735 31.3537 55.2735ZM37.2174 59.1255L35.9664 57.3255L34.7244 59.1255H33.9144L35.5434 56.8395L34.0494 54.7425H34.8504L35.9664 56.3535L37.0914 54.7425H37.8924L36.3714 56.8395L38.0184 59.1255H37.2174Z" fill="#F078F0"/>
</svg>
